<svg xmlns="http://www.w3.org/2000/svg" xmlns:xlink="http://www.w3.org/1999/xlink" version="1.1" x="0px" y="0px" viewBox="0 0 90 112.5" enable-background="new 0 0 90 90" xml:space="preserve"><g><path fill="#000000" d="M70.2,23.2c-4.4-9.2-17.9-9.6-23.4-1.1c-6-8.4-19-8.1-23.4,1.1c-3.4,7.2,3.4,25.4,8.2,30.9   c4.8,5.4,12,1.3,15.2,1.3c3.2,0,10.4,4.1,15.2-1.3S73.7,30.4,70.2,23.2z"/><path fill="#000000" d="M47,14.9C49,4.3,56.8,1.4,64.1,1.7C61.6,10.6,55.5,13.6,47,14.9z"/><path fill="#000000" d="M45.6,21.9c0.2-3.8,0.3-7.6-0.2-9.7c-0.5-2.5-2.2-4.4-2.8-5.1c-1.1-1.1-0.2-2,0.6-2.2   c1.2-0.3,1.8,0.6,2.4,1.3c0.6,0.8,1.5,2.9,1.8,5.2c0.4,2.8,0.2,7.7,0,10.2C47,26.3,45.6,21.9,45.6,21.9z"/><g><g><path fill="#000000" d="M76.1,86H25.9c-6.6,0-12-5.4-12-12c0-6.6,5.4-12,12-12h50.2v4.7H25.9c-4,0-7.3,3.3-7.3,7.3     s3.3,7.3,7.3,7.3h50.2V86z"/></g><path fill="#000000" d="M75,68.7H24.7c-1.4,0.3-2.5,1.1-3.3,2.3H75V68.7z"/><path fill="#000000" d="M75,72.8H20.7c-0.1,0.4-0.1,0.7-0.1,1.1s0,0.8,0.1,1.1H75V72.8z"/><path fill="#000000" d="M75,76.9H21.4c0.7,1.1,1.9,2,3.3,2.3H75V76.9z"/></g></g><text x="0" y="105" fill="#000000" font-size="5px" font-weight="bold" font-family="'Helvetica Neue', Helvetica, Arial-Unicode, Arial, Sans-serif">Created by Kevin Augustine LO</text><text x="0" y="110" fill="#000000" font-size="5px" font-weight="bold" font-family="'Helvetica Neue', Helvetica, Arial-Unicode, Arial, Sans-serif">from the Noun Project</text></svg>