<svg xmlns:dc="http://purl.org/dc/elements/1.1/" xmlns:cc="http://creativecommons.org/ns#" xmlns:rdf="http://www.w3.org/1999/02/22-rdf-syntax-ns#" xmlns:svg="http://www.w3.org/2000/svg" xmlns="http://www.w3.org/2000/svg" version="1.1" viewBox="0 0 100.00001 125" xml:space="preserve" x="0px" y="0px"><path d="m 23.875,9.6875 c -8.041816,0 -7.96875,7 -7.96875,7 l -0.03125,3.75 c -0.657035,-0.0088 -0.8125,0.639305 -0.8125,1.9375 0,1.945816 1.171351,3.979493 2.25,5.03125 0.365525,1.529711 1.060239,2.879512 2,3.90625 -0.03272,0.02016 -0.0609,0.04245 -0.09375,0.0625 -3.204843,1.955014 -7.035067,3.269672 -9.53125,4.59375 -0.6883733,0.364824 -1.4051186,0.997731 -2,1.8125 -0.4050716,0.560501 -0.7591642,1.159063 -1.0625,1.78125 -0.01098,0.02205 -0.020324,0.04041 -0.03125,0.0625 -0.04149,0.08635 -0.085292,0.194094 -0.125,0.28125 -0.6029634,1.290347 -1.0141282,2.649302 -1.25,4.03125 -0.00504,0.02567 0.00468,0.06814 0,0.09375 -0.0108,0.06491 -0.021224,0.122628 -0.03125,0.1875 -0.042264,0.239346 -0.091034,0.483545 -0.125,0.71875 C 5.033556,45.131234 4.985366,45.548094 5,45.75 c -0.0018,0.01224 0.00108,0.01897 0,0.03125 -0.088938,1.261259 2.28125,1.65625 2.28125,1.65625 0.8861392,0.26208 2.5228817,0.546929 4.5,0.8125 3.526971,0.58212 7.139631,0.797278 10.6875,0.90625 0.344394,0.01062 0.687849,-0.0013 1.0625,0 l 0.09375,0 c 0.186426,0 0.369738,0.0018 0.5625,0 0.374669,-0.0018 0.718124,0.01051 1.0625,0 3.546321,-0.108918 7.162005,-0.324742 10.6875,-0.90625 1.980017,-0.265787 3.612925,-0.550132 4.5,-0.8125 0,0 2.370206,-0.394991 2.28125,-1.65625 -0.0018,-0.01224 0.0011,-0.01897 0,-0.03125 0.01476,-0.201906 -0.03354,-0.618766 -0.0625,-0.8125 C 42.60774,44.601459 42.565736,44.250122 42.5,43.90625 42.238785,42.3949 41.766893,40.890193 41.0625,39.5 c -0.0079,-0.01566 -0.02319,-0.04693 -0.03125,-0.0625 -0.29034,-0.581597 -0.619589,-1.129895 -1,-1.65625 -0.594882,-0.814769 -1.311626,-1.447676 -2,-1.8125 C 35.535067,34.644672 31.704843,33.330014 28.5,31.375 c -0.03283,-0.02005 -0.06102,-0.04234 -0.09375,-0.0625 0.939761,-1.026738 1.634475,-2.376539 2,-3.90625 1.078649,-1.051757 2.25,-3.085434 2.25,-5.03125 0,-1.298195 -0.155483,-1.946338 -0.8125,-1.9375 l -0.03125,-3.75 c 0,0 0.10432,-7 -7.9375,-7 z m 52.25,0 c -8.041816,0 -7.9375,7 -7.9375,7 l -0.03125,3.75 c -0.657036,-0.0088 -0.8125,0.639305 -0.8125,1.9375 0,1.945816 1.171351,3.979493 2.25,5.03125 0.365526,1.529711 1.060238,2.879512 2,3.90625 -0.03272,0.02016 -0.0609,0.04243 -0.09375,0.0625 -3.204843,1.954996 -7.035066,3.269672 -9.53125,4.59375 -0.688373,0.364842 -1.405119,0.997731 -2,1.8125 -0.405072,0.560483 -0.759164,1.159063 -1.0625,1.78125 -0.01098,0.02205 -0.02032,0.04041 -0.03125,0.0625 -0.04149,0.08635 -0.08529,0.194112 -0.125,0.28125 -0.602963,1.290347 -1.014128,2.649302 -1.25,4.03125 -0.005,0.02567 0.0047,0.06813 0,0.09375 -0.0108,0.06489 -0.02122,0.122628 -0.03125,0.1875 -0.04226,0.239346 -0.09104,0.483545 -0.125,0.71875 -0.02894,0.193734 -0.07714,0.610594 -0.0625,0.8125 -0.0018,0.01224 0.0011,0.01897 0,0.03125 -0.08894,1.261259 2.28125,1.65625 2.28125,1.65625 0.886139,0.26208 2.522882,0.546929 4.5,0.8125 3.526971,0.58212 7.139631,0.797278 10.6875,0.90625 0.344393,0.01062 0.687848,-0.0013 1.0625,0 l 0.0625,0 c 0.186444,0 0.400988,0.0018 0.59375,0 0.37467,-0.0018 0.718125,0.01051 1.0625,0 3.546321,-0.108918 7.162005,-0.324742 10.6875,-0.90625 1.980016,-0.265787 3.612925,-0.550132 4.5,-0.8125 0,0 2.370206,-0.394991 2.28125,-1.65625 -0.0018,-0.01224 0.0011,-0.01897 0,-0.03125 0.01476,-0.201906 -0.03354,-0.618766 -0.0625,-0.8125 -0.04851,-0.336041 -0.09051,-0.687396 -0.15625,-1.03125 -0.261234,-1.511368 -0.733106,-3.016057 -1.4375,-4.40625 -0.0079,-0.01566 -0.02319,-0.04691 -0.03125,-0.0625 -0.290339,-0.581579 -0.619588,-1.129913 -1,-1.65625 -0.594899,-0.814769 -1.311627,-1.447658 -2,-1.8125 -2.496184,-1.324078 -6.326406,-2.638754 -9.53125,-4.59375 -0.03283,-0.02007 -0.06102,-0.04234 -0.09375,-0.0625 0.939761,-1.026738 1.634474,-2.376539 2,-3.90625 1.078649,-1.051757 2.25,-3.085434 2.25,-5.03125 0,-1.298195 -0.155482,-1.946356 -0.8125,-1.9375 l -0.03125,-3.75 c 0,0 0.07307,-7 -7.96875,-7 z m -26.0625,1.34375 c -5.191357,-0.0079 -10.388564,1.040748 -15.25,3.15625 a 1.4484973,1.4484973 0 1 0 1.15625,2.65625 C 44.957131,12.932336 55.148679,12.935958 64.125,16.875 A 1.4401426,1.4401426 0 1 0 65.28125,14.25 C 60.426366,12.119542 55.253874,11.039242 50.0625,11.03125 z M 86.3125,50.75 a 1.4401426,1.4401426 0 0 0 -1.25,1.34375 c -0.897894,10.533266 -6.488957,20.100366 -15.21875,26.0625 a 1.4401426,1.4401426 0 1 0 1.625,2.375 C 80.911432,74.082235 86.966293,63.737181 87.9375,52.34375 a 1.4401426,1.4401426 0 0 0 -1.5,-1.59375 1.4401426,1.4401426 0 0 0 -0.125,0 z M 50,50.84375 c -8.041816,0 -7.9375,7 -7.9375,7 L 42,61.59375 c -0.657036,-0.0088 -0.8125,0.639323 -0.8125,1.9375 0,1.945834 1.202601,3.979475 2.28125,5.03125 0.365525,1.529711 1.060239,2.879513 2,3.90625 -0.03272,0.02018 -0.0609,0.04245 -0.09375,0.0625 -3.204843,1.954996 -7.035066,3.269689 -9.53125,4.59375 -0.688373,0.364842 -1.436368,0.997731 -2.03125,1.8125 -0.405071,0.560484 -0.759164,1.159044 -1.0625,1.78125 -0.01098,0.02203 -0.02032,0.04041 -0.03125,0.0625 -0.04149,0.08635 -0.08529,0.194094 -0.125,0.28125 -0.602963,1.290347 -0.982878,2.649301 -1.21875,4.03125 -0.005,0.02569 -0.02657,0.06813 -0.03125,0.09375 -0.0108,0.06491 -0.02122,0.122628 -0.03125,0.1875 -0.04226,0.239345 -0.09105,0.483544 -0.125,0.71875 -0.02896,0.193734 -0.04588,0.610576 -0.03125,0.8125 -0.0018,0.01224 0.0011,0.01897 0,0.03125 -0.08894,1.261259 2.25,1.65625 2.25,1.65625 0.886139,0.262079 2.522881,0.546928 4.5,0.8125 3.52697,0.582119 7.139613,0.797296 10.6875,0.90625 0.344376,0.01062 0.719098,-0.0013 1.09375,0 l 0.0625,0 c 0.186426,0 0.369739,0.0018 0.5625,0 0.37467,-0.0018 0.749374,0.01053 1.09375,0 3.54632,-0.108918 7.162005,-0.324725 10.6875,-0.90625 1.979998,-0.265788 3.612925,-0.550151 4.5,-0.8125 0,0 2.338956,-0.394991 2.25,-1.65625 -0.0018,-0.01224 0.0011,-0.01897 0,-0.03125 0.01476,-0.201924 -0.0023,-0.618766 -0.03125,-0.8125 -0.04851,-0.336042 -0.121764,-0.687397 -0.1875,-1.03125 -0.261216,-1.511351 -0.701856,-3.016076 -1.40625,-4.40625 -0.0079,-0.01566 -0.02319,-0.04693 -0.03125,-0.0625 -0.29034,-0.581598 -0.619588,-1.129894 -1,-1.65625 -0.594881,-0.814769 -1.342876,-1.447658 -2.03125,-1.8125 -2.496184,-1.324061 -6.326425,-2.638754 -9.53125,-4.59375 -0.03285,-0.02005 -0.06102,-0.04232 -0.09375,-0.0625 0.939761,-1.026737 1.634474,-2.376539 2,-3.90625 1.078649,-1.051775 2.28125,-3.085416 2.28125,-5.03125 0,-1.298177 -0.155483,-1.946356 -0.8125,-1.9375 l -0.0625,-3.75 c 0,0 0.10432,-7 -7.9375,-7 z m -36.625,0.1875 A 1.4401426,1.4401426 0 0 0 12.09375,52.625 C 13.122108,63.677763 18.943561,73.737367 28,80.15625 A 1.4403339,1.4403339 0 1 0 29.65625,77.8125 C 21.28372,71.878339 15.919455,62.561854 14.96875,52.34375 a 1.4401426,1.4401426 0 0 0 -1.4375,-1.3125 1.4401426,1.4401426 0 0 0 -0.15625,0 z" transform="translate(0,-5e-6)" style="text-indent:0;text-transform:none;direction:ltr;block-progression:tb;baseline-shift:baseline;color:#000000;enable-background:accumulate;" fill="#000000" fill-opacity="1" stroke="none" marker="none" visibility="visible" display="inline" overflow="visible"/><text x="0" y="115" fill="#000000" font-size="5px" font-weight="bold" font-family="'Helvetica Neue', Helvetica, Arial-Unicode, Arial, Sans-serif">Created by Aha-Soft</text><text x="0" y="120" fill="#000000" font-size="5px" font-weight="bold" font-family="'Helvetica Neue', Helvetica, Arial-Unicode, Arial, Sans-serif">from the Noun Project</text></svg>