<svg xmlns:dc="http://purl.org/dc/elements/1.1/" xmlns:cc="http://creativecommons.org/ns#" xmlns:rdf="http://www.w3.org/1999/02/22-rdf-syntax-ns#" xmlns:svg="http://www.w3.org/2000/svg" xmlns="http://www.w3.org/2000/svg" version="1.1" viewBox="0 0 100.00001 125" xml:space="preserve" x="0px" y="0px"><path d="m 49.6875,9.5 c -2.21184,0 -3.88901,0.2752403 -5.09375,0.875 -0.29538,0.14724 -0.57346,0.31298 -0.8125,0.5 -0.32724,-0.1593 -0.72368,-0.25 -1.25,-0.25 -0.75078,0 -1.52341,0.18961 -2.21875,0.53125 C 39.96906,10.94457 39.53708,10.75 38.9375,10.75 c -0.61812,0 -4.19452,0.56414 -7,1.4375 -0.41004,0.12816 -0.79996,0.24133 -1.1875,0.34375 -0.98946,0.26172 -1.858879,0.47141 -2.5625,0.96875 -0.25974,-0.11736 -0.54135,-0.28125 -0.84375,-0.28125 -1.77516,0 -4.05329,1.312729 -6.96875,3.78125 -0.64764,0.54828 -1.32747,0.89118 -1.78125,1.125 -0.21132,0.10872 -0.41058,0.18261 -0.5625,0.28125 -0.12852,0.08352 -0.32807,0.24605 -0.59375,0.40625 -0.8046,0.48402 -2.02156,1.2179 -3.0625,2 -1.20186,0.90324 -2.4375,2.01838 -2.4375,3.4375 0,0.23202 0.04418,0.44241 0.125,0.65625 C 11.30704,25.48945 10.58608,26.21808 10,27 9.8351204,27.21924 9.66218,27.44673 9.5,27.65625 8.5046001,28.94289 7.5625,30.14706 7.5625,31.6875 l 0,0.09375 c -0.36018,0.23166 -0.7003,0.61658 -1,1.25 C 6.3538799,33.47279 6.16218,33.98077 6,34.46875 5.95968,34.59007 5.91442,34.69694 5.875,34.8125 5.51194,35.87522 5,38.33358 5,39.75 c 0,1.29942 0.56218,3.84024 0.625,4.125 0.09018,0.40734 0.31324,0.76132 0.625,1 0.1251001,1.58328 0.46132,3.54111 0.8125,4.59375 0.16128,0.4842 0.33456,0.93929 0.75,1.34375 0,0.54126 0.1917299,0.880459 0.46875,1.25 0.17514,0.23364 0.31737,0.47132 0.46875,0.6875 0.9025199,1.2897 1.837199,2.625 4.6875,2.625 0.4005,0 0.743,-0.02045 1.0625,-0.03125 0.17262,0.4608 0.58167,0.99495 1.40625,1.40625 0.44514,0.22194 1.01765,0.42851 1.71875,0.59375 1.10808,0.26136 2.50701,0.5 3.46875,0.5 1.36134,0 2.37033,-0.33312 3.09375,-0.75 -0.018,0.2007 -0.03125,0.41422 -0.03125,0.625 0,2.48382 0.87334,4.6762 2.5,6.4375 -0.24552,0.3699 -0.375,0.83741 -0.375,1.34375 0,1.65582 1.871979,3.309539 3.625,4.3125 1.79352,1.02528 4.92027,2.44559 9.65625,2.28125 3.23496,-0.11214 6.508599,-0.40804 9.25,-1.375 6.055919,-4.041001 13.65001,-4.74598 20.78125,-4.9375 4.34214,-0.0801 8.66861,0.63056 12.78125,2 0.21618,0.10512 0.446299,0.19701 0.6875,0.28125 2.92446,-0.0414 4.63289,-0.87763 6.40625,-2.03125 1.60632,-1.04508 2.5,-2.45929 2.5,-3.71875 0,-0.1566 7e-5,-0.31467 -0.03125,-0.46875 0.02268,-0.0144 0.04,-0.04774 0.0625,-0.0625 1.19538,-0.78444 1.9375,-1.87731 1.9375,-3.09375 0,-0.20052 -0.0971,-0.4207 -0.125,-0.625 0.3879,-0.26946 0.68762,-0.66784 0.875,-1.1875 C 94.90548,56.26966 95,55.44066 95,54.1875 c 0,-1.13346 -0.31507,-2.44668 -1.09375,-3.5625 0.38448,-0.43974 0.75,-1.05629 0.75,-1.90625 0,-0.18108 -0.10848,-0.51026 -0.75,-3.875 -0.189,-0.98856 -0.38697,-1.88052 -0.65625,-2.625 -0.19422,-0.53784 -0.41228,-0.9786 -0.6875,-1.3125 -0.24192,-0.2925 -0.53271,-0.50019 -0.84375,-0.65625 0.09018,-0.43434 0.125,-0.86808 0.125,-1.3125 0,-0.73242 -0.19816,-2.00414 -0.8125,-3.125 -0.48276,-0.88164 -1.14539,-1.53268 -1.90625,-1.9375 0.06552,-0.221041 0.0625,-0.44576 0.0625,-0.6875 0,-0.60516 -0.251,-1.04216 -0.6875,-1.625 -0.26334,-0.35064 -0.58931,-0.79766 -0.96875,-1.25 C 87.08161,29.77736 85.93726,28.43968 85,27.625 c -1.3851,-1.20402 -2.87125,-1.58188 -3.90625,-1.75 0.10638,-0.29808 0.1875,-0.62909 0.1875,-0.96875 0,-1.55304 -1.02851,-2.52307 -2.09375,-3.53125 -0.38232,-0.36216 -0.82801,-0.76004 -1.28125,-1.25 -0.64836,-0.70092 -1.24467,-1.21557 -1.78125,-1.59375 -0.78318,-0.55206 -1.5084,-0.83133 -2.25,-0.84375 -0.05292,-1.21104 -1.09621,-2.15625 -2.40625,-2.15625 -0.0873,0 -0.16648,-0.0054 -0.25,0 -0.37062,-0.5391 -1.01984,-1.0869 -2.1875,-1.5 -0.9756,-0.34542 -2.21795,-0.5625 -3.21875,-0.5625 -0.23526,0 -0.46592,0.02225 -0.6875,0.03125 -0.21546,-0.59886 -0.7207,-1.29921 -1.9375,-1.78125 -0.74376,-0.29466 -1.66008,-0.4375 -2.4375,-0.4375 -1.27008,0 -2.27173,0.27936 -3.15625,0.5625 C 57.56801,11.85275 57.52556,11.86618 57.5,11.875 57.31334,11.51104 57.00486,11.12235 56.4375,10.78125 55.98426,10.50873 55.37535,10.25942 54.65625,10.0625 53.27061,9.6819802 51.51306,9.5 49.6875,9.5 z m -4.96875,1.9375 c 0.5274,0 1.0625,0.03342 1.0625,0.1875 0,0.12582 -0.35666,0.29498 -0.6875,0.5 -0.62604,0.38808 -0.90625,0.86272 -0.90625,1.375 0,0.50436 0.20058,0.89335 0.375,1.28125 -1.68696,-0.85878 -0.49783,-2.46875 -2.03125,-2.46875 -1.5012,0 -3.14661,1.36895 -3.28125,2.46875 -0.19476,-0.0126 -0.378,0 -0.5625,0 -2.20158,0 -3.78899,0.856339 -4.34375,1.25 1.73646,-2.005021 3.29324,-1.68859 3.875,-1.84375 0.58194,-0.15534 1.25,-0.6978 1.25,-1.3125 0,-0.27144 0.08255,-0.76927 1.15625,-0.90625 1.1322,-0.14436 2.68417,-0.53125 4.09375,-0.53125 z M 58.5625,12.5 c 1.45206,0 2.15625,0.53125 2.15625,0.53125 -1.95174,0 -3.21879,0.875 -4.96875,0.875 -0.3168,0 -0.6463,-0.07885 -1,-0.15625 0.66564,-0.2313 1.21875,-0.53358 1.21875,-0.9375 0,0 0.0025,-0.3125 2.59375,-0.3125 z m -10.65625,0.34375 c 0,0 -0.90625,1.18617 -0.90625,2.34375 0,1.157581 0.60802,1.875 1.375,1.875 1.51938,0 1.3118,-2.6875 4.4375,-2.6875 -1.54872,0.43416 -2.42889,1.80269 -2.90625,2.65625 -0.47754,0.85374 -1.1875,1.30961 -1.1875,2.84375 -0.99864,-1.25946 -2.26158,-1.9375 -3.1875,-1.9375 -0.9261,0 -2.31644,0.22741 -2.5625,0.53125 0.65376,-0.85482 2.1468,-1.21875 3,-1.21875 0.12906,0 0.47898,0.08043 0.5625,0.09375 -0.23094,-0.31842 -0.40625,-0.92112 -0.40625,-1.5 0,-0.579241 0.420989,-2.0739 1.78125,-3 z m 16.65625,1.25 c 1.076401,0 1.25,1.03125 1.25,1.03125 -3.626821,0 -4.75,1.31993 -4.75,2.65625 -3.53772,0 -7.71875,2.6382 -7.71875,4.125 0,1.07226 2.09375,1.63737 2.09375,2.53125 0,2.30292 -5.63681,1.10201 -7.34375,3.59375 -1.02618,1.49814 -3.1875,5.580659 -3.1875,8.625 0,2.3121 1.30756,3.21254 1.75,3.5 -0.49986,0.7488 -1.21875,2.0517 -1.21875,2.625 0,0.57312 0.41714,0.84375 0.6875,0.84375 0.44694,0 2.93542,-1.97887 4.1875,-2.59375 1.69434,-0.83178 4.09375,-2.13871 4.09375,-3.71875 0,-0.70938 -0.875,-2.32776 -0.875,-3.375 0,-1.135081 1.03125,-1.90625 1.03125,-1.90625 0,0 -0.34375,0.70157 -0.34375,1.71875 0,1.784881 1.60024,4.78125 5.125,4.78125 3.8277,0 5.113419,-2.35384 5.875,-4.75 0.62082,-1.952281 0.83374,-3.8842 3.0625,-4.75 -2.05506,1.59282 -2.46875,4.74589 -2.46875,5.21875 0,0.47268 0.1875,0.42549 0.1875,0.65625 0,1.30968 -3.34375,3.28776 -3.34375,4.3125 0,0.35712 1.9375,1.14348 1.9375,3 0,0.48798 -0.25,1.0625 -0.25,1.0625 0,0 -0.07991,-1.94469 -2.09375,-2.90625 -0.87966,-0.41976 -4.71172,-0.625 -5.6875,-0.625 -1.96092,0 -4.21574,1.44055 -5.5625,2.40625 -3.61746,2.59398 -5.209,4.2642 -5.875,4.5 -1.56978,0.5562 -3.90625,3.226589 -3.90625,6.46875 0,1.989 0.79198,3.3125 1.375,3.3125 0.91944,0 2.02996,-2.09844 2.125,-2.8125 0,2.466 -1.9375,3.2784 -1.9375,4.3125 0,1.41336 2.04035,2.57583 2.46875,2.71875 -2.25324,-0.0036 -1.94418,-1.5625 -3.375,-1.5625 -2.45016,0 -4.1398,2.21873 -4.1875,2.46875 -0.0144,-0.98172 1.09161,-2.04223 1.96875,-2.59375 0.5454,-0.3429 2.09375,-0.51198 2.09375,-1.5 0,-1.05966 -1.59375,-2.07275 -1.59375,-4.15625 0,-1.982341 1.40625,-4.45656 1.40625,-5.25 0,-0.72774 -0.97391,-1.28125 -3.40625,-1.28125 -2.3994,0 -4.87109,1.82011 -5.65625,2.59375 -0.7857,0.77328 -3.110319,2.77974 -3.8125,3.375 -0.50382,0.4266 -1.70511,1.34716 -2.34375,2.875 0,0 -0.08202,0.46875 -1.3125,0.46875 C 24.20775,56.09375 24,55.0625 24,55.0625 c 0,-0.29322 -0.77744,-0.71875 -1.4375,-0.71875 -0.39132,0 -0.68555,0.1875 -1.71875,0.1875 -2.12094,0 -3.18369,-1.0625 -3.28125,-1.0625 -0.1467,0 -1.5,0.69153 -1.5,1.21875 -1.75788,0 -2.625,-1.0625 -2.625,-1.0625 2.11266,0 2.93798,-0.14395 3.6875,-0.34375 -1.43658,-1.44738 -2.66957,-2.09375 -4.34375,-2.09375 -0.7362,0 -1.25388,0.15625 -1.6875,0.15625 -0.551881,0 -1.03391,-0.15943 -1.53125,-0.34375 0,0 -1.03125,-0.25977 -1.03125,-1.03125 0,-0.36594 0.15625,-1.0625 0.15625,-1.0625 0.27162,0.81468 1.570379,1.5625 2.625,1.5625 3.0366,0 2.23692,-2.43859 3.1875,-3.15625 -0.05832,0.21348 -0.1875,0.88463 -0.1875,1.15625 0,1.92708 2.35247,3.011809 3.59375,3.59375 1.2411,0.58176 3.45912,1.5625 5.4375,1.5625 1.9782,0 3.11917,-0.997399 4.28125,-2.5625 0.97164,-1.30824 3.22458,-2.26434 3.75,-3.5625 -3.559501,-0.42732 -5.14025,-4.37801 -5.46875,-5.28125 1.98252,2.034 3.55082,3.5 5,3.5 1.85886,0 1.62718,-1.56995 1.9375,-2.09375 0.31014,-0.52362 1.5,-1.44285 1.5,-3.46875 0,-0.85302 -0.13063,-2.3512 -0.34375,-2.875 0.57438,0.7461 1.25,2.0347 1.25,3.625 0,2.26422 -1.40625,2.94278 -1.40625,3.875 0,0.60156 0.46221,1.3125 0.65625,1.3125 0.19404,0 0.6713,-0.90625 2.375,-0.90625 1.125,0 2.59393,0.53125 3.71875,0.53125 3.33,0 4.8125,-4.00146 4.8125,-4.875 0,-1.72224 -1.71875,-1.34357 -1.71875,-5.28125 0,-1.6875 0.58303,-3.29197 0.71875,-4.28125 0.13572,-0.98964 0.882629,-3.97874 4.21875,-5.375 1.37772,-0.5769 2.23254,-0.53022 2.8125,-0.75 0.8235,-0.31302 1.1875,-0.83072 1.1875,-1.4375 0,-2.20302 -1.60901,-2.873 -2.09375,-3.125 l 0.1875,0 c 0.62658,0 1.33894,0.30143 1.5625,0.59375 1.5084,-2.4696 4.0928,-3.12468 6.125,-3.75 1.3914,-0.42822 2.625,-0.93945 2.625,-1.59375 0,-0.484921 -0.84375,-1.21875 -0.84375,-1.21875 0,0 1.09048,0.5 1.75,0.5 0.65934,0 1.59375,-0.31185 1.59375,-0.84375 0,0 0.35013,-0.1875 1.03125,-0.1875 z M 28.21875,14.25 c 0.685801,0 1.16988,0.48525 0.9375,0.65625 -0.659521,0.48492 -1.125,1.21348 -1.125,1.5625 0,0.3492 0.21802,0.59375 0.625,0.59375 0.407161,0 0.62173,-0.15625 1.28125,-0.15625 1.94814,0 2.84375,1.35156 2.84375,1.875 l 0,0.90625 c 0,0 0.79655,-1.16572 2.46875,-1.75 -2.24316,1.64322 -2.65625,3.5238 -2.65625,4.125 0,1.02366 1.41692,1.74422 2.1875,2.5625 0.60444,0.64116 1.1964,1.75 2.4375,1.75 1.4454,0 2.0625,-0.89535 2.0625,-1.59375 0,-0.69822 -0.53125,-1.70058 -0.53125,-2.4375 0,-0.73674 1.0625,-3.77816 1.0625,-4.4375 0,-0.65934 -0.34375,-1.71875 -0.34375,-1.71875 0,0 1.03125,1.12682 1.03125,2.5625 0,1.43478 -0.6875,3.33939 -0.6875,3.84375 0,0.504 0.17024,2.03125 1.625,2.03125 1.65564,0 3.77068,-1.40273 4,-2.09375 -0.62226,3.18978 -7.6875,3.87239 -7.6875,5.84375 0,0.44604 0.46875,1.48549 0.46875,2.59375 0,1.2357 -0.6875,2.494889 -0.6875,3.09375 0,1.07892 1.75,2.1601 1.75,5.5 -1.1673,-3.82248 -2.79124,-4.03125 -3.625,-4.03125 -1.51254,0 -3.46882,1.19643 -6.25,1.78125 -1.109521,0.23346 -4.7004,0.53761 -5.4375,1.46875 -0.73692,0.93114 -1.21922,2.06311 -1.8125,2.59375 -0.95184,0.85104 -3.09375,1.83997 -3.09375,3.53125 0,2.09268 3.65952,3.53761 5.8125,3.90625 -0.43074,0.10224 -0.9286,0.25 -1.9375,0.25 -4.03164,0 -5.01043,-3.22863 -5.96875,-4.03125 -1.60362,-1.34352 -4.92672,-0.65425 -5.8125,-3.15625 1.31418,1.08594 2.79542,1.40625 4.25,1.40625 1.85184,0 3.3125,-0.86628 3.3125,-1.3125 0,-0.73026 -1.98766,-0.92144 -2.125,-2.5625 0.92268,1.15326 2.24037,1.5625 3.09375,1.5625 2.4633,0 2.87367,-2.58257 4.03125,-3.40625 0.72054,-0.51282 1.56871,-0.5793 4.65625,-0.9375 2.366281,-0.2754 3.7852,-1.50095 4.75,-2.28125 0.7488,-0.605521 4.03125,-1.43487 4.03125,-3.65625 0,-1.47942 -0.72869,-1.52511 -1.34375,-2.90625 -0.63468,-1.42542 -1.54236,-2.62706 -2.4375,-3.3125 -1.01808,-0.77904 -2,-0.53883 -2,-1.40625 0,-1.53018 0.875,-1.74151 0.875,-3.53125 0,-0.65988 -0.53856,-1.75 -2.25,-1.75 -2.744821,0 -4.4375,1.34591 -4.4375,2.46875 0,1.10826 0.86151,1.21875 1.59375,1.21875 0.29538,0 1.06359,0.18223 1.21875,0.53125 -3.74796,0 -6.6875,2.39045 -6.6875,5.28125 0,0.8451 0.28232,1.21875 0.6875,1.21875 0.29106,0 1.07331,-0.53125 2.90625,-0.53125 2.5047,0 2.878849,1.59375 4.53125,1.59375 0.68166,0 1.70213,-0.13494 1.90625,-0.1875 -0.59508,0.351 -1.24094,0.71875 -2,0.71875 -1.793341,0 -2.37265,-1.0625 -4.46875,-1.0625 -1.86606,0 -2.66645,0.91392 -2.84375,1.5 -0.3096,1.02348 -0.29254,2.901599 -1.75,3.9375 0,-1.178821 0.6875,-1.94005 0.6875,-2.96875 -0.18486,0 -0.33521,0.15625 -0.78125,0.15625 -1.65798,0 -2.12006,-2.28125 -3.6875,-2.28125 -0.88686,0 -2.21786,1.01425 -3.5,2.03125 -0.87246,0.6921 -1.68636,1.20438 -2.4375,2.25 -1.2508205,1.742041 -2.25,4.59753 -2.25,6.28125 0,0.65628 0.48601,1.25218 0.71875,1.5625 -0.09054,-0.018 -0.26437,-0.0625 -0.34375,-0.0625 -1.07406,0 -1.38729,1.46067 -1.59375,2.34375 0,0 0.13129,-3.36366 0.53125,-5.0625 0.3997801,-1.6992 1.21875,-4.03157 1.21875,-4.53125 0,-0.499681 -0.14429,-0.9375 -0.59375,-0.9375 -1.19988,0 0.59375,-2.5435 0.59375,-1.5625 0,0.49986 0.5465705,1.03125 1.40625,1.03125 0.411481,-0.65412 3.1453,-3.875 6.4375,-3.875 1.74888,0 2.04291,1.59375 3.09375,1.59375 0.4482,0 1.1875,-0.55186 1.1875,-1.375 0,-1.05066 -1.27895,-2.5 -3.59375,-2.5 -0.4041,0 -1.30592,0.0075 -2.5625,0.34375 0.38214,-0.52164 2.50271,-1 3.78125,-1 1.80036,0 2.60083,-1.4038 2.96875,-1.9375 0.50724,-0.73548 2.75,-1.60746 2.75,-3.1875 0,-0.5364 -0.18788,-1.46324 -1.0625,-2 1.72692,0 2.35303,-0.33695 2.78125,-0.96875 0.89604,-1.32264 1.28125,-1.999339 1.28125,-2.375 0,-0.23526 -0.15277,-0.46875 -0.34375,-0.46875 -0.8784,0 0.04106,-0.71875 0.875,-0.71875 z m 36.375,2.3125 c 0,0 2.21816,1.375 3.125,1.375 0.90684,0 2.15625,-0.60184 2.15625,-1 0,0 0.03493,-0.21875 0.71875,-0.21875 0.68382,0 0.84375,0.53125 0.84375,0.53125 -1.74726,0 -2.14932,1.75 -3.5625,1.75 -1.65366,0 -3.28125,-2.4375 -3.28125,-2.4375 z m 7.5625,1.21875 c 0,0 0.84334,0.03869 1.1875,0.40625 0.50364,0.53946 0.5625,1.1875 0.5625,1.1875 -1.26864,0 -1.75,1.53741 -1.75,2.15625 0,0.61938 0.15625,1.53125 0.15625,1.53125 0,0 -0.875,-1.55033 -0.875,-2.65625 0,-1.10574 0.71875,-2.22684 0.71875,-2.625 z m -52.5,3.875 c 0.25506,0 0.49613,0.05091 0.78125,0.09375 -0.17622,0.0882 -4.11239,1.09145 -4.53125,3.40625 -0.6219,0 -1.38232,0.28243 -2.125,0.71875 -0.52722,0 -0.6875,-0.5234 -0.6875,-1.0625 0,-0.35154 0.35539,-0.53125 0.53125,-0.53125 0.17568,0 0.38063,0.34375 0.59375,0.34375 1.35846,0 2.33088,-2.96857 5.4375,-2.96875 z m 39.78125,0 c 1.63638,0 2.23237,1.21875 2.96875,1.21875 0.40644,0 1.865329,-0.6875 2.65625,-0.6875 0.3735,0 1.07938,0.34375 1.5625,0.34375 1.16388,0 2.53125,-0.53125 2.53125,-0.53125 0,0 -1.12815,1.0625 -3.09375,1.0625 l -0.25,0 c -0.66294,0 -1.62075,-0.0077 -2.15625,0.375 -0.61524,0.43884 -2.01314,2.86539 -2.5625,3.46875 -0.549,0.60426 -1.58023,1.42953 -1.84375,1.78125 -0.26334,0.35154 -1.15625,1.72258 -1.15625,3.0625 0,1.30158 0.48938,2.1695 0.5,2.1875 -0.0315,-0.0054 -1.21875,-0.22789 -1.21875,-2.40625 0,-1.82322 0.01012,-2.5 -2.1875,-2.5 -1.7244,0 -4.3125,1.40625 -4.3125,1.40625 0,0 1.63229,-2.46875 4.71875,-2.46875 0.95562,0 1.58933,0.53125 2.28125,0.53125 1.60794,0 3.5625,-3.39301 3.5625,-4.65625 0,-1.37898 -2.30928,-2.03125 -3.1875,-2.03125 0.30726,-0.05616 0.75892,-0.15625 1.1875,-0.15625 z m 12.40625,2.4375 c 1.962,0 2.46606,2.3125 3.1875,2.3125 0.6507,0 0.8696,-0.375 1.4375,-0.375 0.33192,0 0.6422,0.1875 1.0625,0.1875 0.4203,0 2,-0.16413 2,-1.21875 0,0 0.875,0.33142 0.875,1.1875 0,0.9018 -0.34375,1.25 -0.34375,1.25 -0.8793,-0.09756 -1.98427,-0.6875 -3.15625,-0.6875 -1.17216,0 -1.6875,1.13914 -1.6875,1.5625 0,0.42354 0.14803,2.73331 -0.03125,3.53125 -0.17946,0.79758 -0.9375,4.29409 -0.9375,6.90625 0,3.18294 3.16775,6.625 5.65625,6.625 2.984941,0 4.42121,-1.97566 4.71875,-4.75 0.26064,0.32526 1.0625,3.70036 1.0625,4.9375 0,1.23714 -0.464289,6.60181 -3.34375,8.78125 0.21132,-0.39078 2.28125,-4.65725 2.28125,-7.90625 0,-0.40698 -0.14222,-1.59375 -0.875,-1.59375 -0.6471,0 -1.92668,1.11791 -2.1875,1.71875 -0.73764,1.70118 -1.44303,2.79564 -2.90625,3.75 C 79.12839,49.80796 80.75,47.96592 80.75,46.5 c 0,-0.42912 -0.48105,-0.40625 -0.84375,-0.40625 l -0.21875,0 c -0.55332,0 -2.04602,-0.3815 -3.3125,-1.25 -1.93032,-1.3239 -2.07318,-2.96875 -3,-2.96875 -0.5535,0 -1.23156,1.77429 -1.6875,2.71875 -0.45594,0.94392 -1.14506,1.76377 -1.8125,2.59375 -0.66744,0.83034 -1.0625,1.8635 -1.0625,3.3125 0,1.449541 1.0413,1.242709 1.6875,1.53125 1.22436,0.54738 2.81743,1.25 5.03125,1.25 4.90068,0 5.75,-1.40625 5.75,-1.40625 -0.13068,1.17216 -2.27194,1.7283 -2.5,1.875 -0.22788,0.1467 -0.46875,0.24527 -0.46875,1.15625 0,3.3984 2.13635,3.65625 3.40625,3.65625 2.541601,0 4.57551,-1.26007 5.90625,-3.34375 -0.09324,0.76302 -1.790489,4.40625 -6.09375,4.40625 -1.31868,0 -1.77345,-0.32732 -2.53125,-0.6875 0,2.09088 -1.4375,2.48732 -1.4375,4.0625 0,0.50022 0.13848,0.83776 0.375,1.1875 0,0 -0.51313,0.34375 -2.03125,0.34375 -1.47024,0 -1.8125,-1.3125 -1.8125,-1.3125 2.99772,-0.72792 4.21875,-2.82894 4.21875,-4.875 0,-1.34262 -0.37681,-2.35089 -0.53125,-3.09375 C 77.59117,54.33398 77.2295,54 76.4375,54 c -0.99522,0 -1.62459,0.15625 -2.53125,0.15625 -1.63584,0 -3.72581,-1.5625 -4.90625,-1.5625 -1.93716,0 -3.249699,1.9375 -5.875,1.9375 -0.7299,0 -1.34375,-0.375 -1.34375,-0.375 0,0 6.5,-1.095249 6.5,-4.84375 0,-0.70794 -0.10428,-0.8125 -0.375,-0.8125 -0.59724,0 -1.35429,0.5625 -2.34375,0.5625 -0.48672,0 -0.96257,-0.04386 -1.15625,-0.1875 1.650601,-0.44298 3.69511,-1.68238 5.03125,-3.25 1.0926,-1.28178 2.30924,-3.48079 3.125,-5.96875 1.07316,-3.27438 1.53125,-7.03323 1.53125,-9.84375 0,-3.98862 -1.99807,-5.40625 -3.34375,-5.40625 0.29646,-0.08712 0.62935,-0.3125 1.09375,-0.3125 z M 81.0625,30.25 c 0.304972,0.323688 1.09375,1.264883 1.09375,2.8125 l 0,0.03125 c 0,2.450521 -2.4375,1.34475 -2.4375,3.46875 0,0.52956 0.5039,1.59375 1.8125,1.59375 1.452061,0 2.21981,-1.147 2.46875,-2.875 C 84.17496,34.06715 85.00995,34 85.78125,34 l 0.3125,0 c 0.84654,0 1.34375,-0.158339 1.34375,-0.75 0,0 0.875,0.277309 0.875,1.15625 0,0.76914 -1.125,0.78125 -1.125,0.78125 -2.53548,0 -3.108609,4.375 -5.78125,4.375 -2.03508,0 -2.75,-1.52031 -2.75,-3.84375 0,-0.88614 0.09434,-2.81297 -1.375,-3.96875 0.5697,0.0162 2.0625,1.064249 2.0625,3.09375 0.48834,-0.06534 2.3125,-0.483099 2.3125,-2.5 0,-0.94149 -0.396009,-1.752014 -0.59375,-2.09375 z m -65.78125,1.78125 c 0,0 0.26559,2.42619 3.09375,3.46875 -4.05648,0.66492 -6.39931,3.23886 -6.53125,3.5625 0.45558,-1.70172 2.48724,-3.33608 3.9375,-3.875 -0.35946,-0.33534 -0.75,-0.917069 -0.75,-1.78125 0,-0.44334 0.25,-1.375 0.25,-1.375 z m 74.8125,6.84375 c 0,0 0.875,0.53721 0.875,1.40625 0,0.8883 -0.28125,1.40625 -0.28125,1.40625 -0.69192,0 -0.81929,0.83461 -1.71875,1.46875 0.65718,0.4383 1.125,2.0696 1.125,2.75 0,0.68022 -0.32989,1.97885 -0.90625,2.84375 0.78408,0 2.01169,0.84375 2.96875,0.84375 0,0 0.90625,0.007 0.90625,1.0625 0,0.70344 -0.40625,1.21875 -0.40625,1.21875 -0.5004,-0.885421 -1.35374,-1.609 -2.75,-1.9375 0.0162,0.9117 -0.07797,3.29408 -1.59375,4.0625 0.40698,-0.42318 0.90625,-1.406719 0.90625,-2.5625 0,-1.15614 -0.46976,-1.8616 -1.0625,-2.3125 0.64602,-0.94248 1.21875,-2.30723 1.21875,-3.21875 0,-0.9117 -0.42952,-1.9698 -1.75,-2.625 0.84654,-0.45576 2.46875,-2.08857 2.46875,-4.40625 z m -44.5,9.5 c 2.522341,0.15624 5.30446,1.5625 6.8125,1.5625 1.32624,0 2.41417,-1.03125 5.78125,-1.03125 1.15704,0 2.3353,0.30016 3.0625,0.4375 -5.395499,0.50706 -8.78125,1.538469 -8.78125,2.96875 0,1.48194 5.16271,1.88849 5.96875,3.96875 -0.32148,-0.2358 -2.57981,-1.59375 -4.15625,-1.59375 -0.33624,0 -0.6329,0.14661 -0.875,0.28125 -0.80316,0.4473 -1.1875,4.125 -1.1875,4.125 0,0 -0.28125,-1.04994 -0.28125,-1.6875 0,-0.6363 0.55631,-3.16274 -0.53125,-5 -1.50822,-2.548261 -5.8125,-4.03125 -5.8125,-4.03125 z m -7.6875,1.9375 c 0,0 0.15625,0.58401 0.15625,0.84375 0,1.313641 -1.8356,2.22974 -2.75,3.5 -0.76716,1.0665 -0.89081,2.59221 -0.96875,3.28125 C 34.26581,58.62654 34,59.70407 34,60.40625 c 0,4.12146 2.76823,6.39669 6.34375,6.65625 -0.2214,0.09144 -0.59717,0.28125 -1.15625,0.28125 C 38.6286,67.34375 37.95467,67 37.34375,67 c -1.26162,0 -1.26731,1.76885 -2.28125,2.09375 0.31176,-0.468 0.53125,-1.01389 0.53125,-1.46875 0,-1.39086 -1.49009,-3.57447 -1.90625,-4.40625 -0.41598,-0.83214 -0.81434,-1.8027 -0.875,-2.25 -0.10458,-0.76662 -0.66132,-1.33985 -1.125,-1.71875 -0.59418,-0.48636 -1.34102,-0.5 -2,-0.5 -0.60966,0 -1.11864,0.10621 -1.3125,0.15625 0.19782,-0.17568 1.14376,-0.875 2.3125,-0.875 0.94896,0 1.53926,0.53125 1.8125,0.53125 1.1439,0 0.85805,-2.29708 1.53125,-3.8125 0.77994,-1.755 3.06878,-1.342579 3.875,-4.4375 z m 51.8125,4.90625 c 1.72944,0 2.20432,1.59375 2.875,1.59375 0,0 0.3125,0.18167 0.3125,0.78125 0,0.98244 -0.71875,1.15625 -0.71875,1.15625 0,-0.93006 -0.64409,-2.63395 -2.46875,-3.53125 z m -39.375,1.9375 c 0,0 -0.6875,1.18422 -0.6875,2.25 0,1.683 1.80962,2.15625 2.9375,2.15625 2.86074,0 1.83216,-1.69523 3.5625,-2.65625 -0.2547,0.3897 -0.53125,1.2345 -0.53125,1.5 0,0.26532 0.36634,1.5 2.3125,1.5 1.70154,0 2.61573,-1.0625 4.03125,-1.0625 1.93986,0 2.363529,1.64679 5.96875,2.34375 0,0 9e-5,1.1875 -1.40625,1.1875 -1.40634,0 -1.40625,-0.59375 -1.40625,-0.59375 0,-0.56052 -1.01627,-0.9948 -1.53125,-1.3125 -0.51516,-0.31842 -0.54629,-0.90625 -1.53125,-0.90625 -0.93924,0 -2.13866,1.40625 -4.0625,1.40625 -1.6965,0 -2.48025,-0.90625 -3.84375,-0.90625 -0.9549,0 -1.15625,0.56383 -1.15625,1.09375 0,1.42434 2.16462,2.78125 2.4375,2.78125 0,0 -0.07505,0.65625 -0.40625,0.65625 -0.33102,0 -0.625,-0.28125 -0.625,-0.28125 0,0 -3.03027,-1.56304 -3.46875,-3.8125 -3.28572,0.33372 -4.96875,0.88988 -4.96875,2.75 0,2.93526 -1.78125,3.84375 -1.78125,3.84375 0,0 0.90625,-1.47841 0.90625,-2.78125 0,-1.42164 -0.66648,-1.9375 -1.875,-1.9375 -0.7299,0 -1.62249,0.2303 -2.34375,0.6875 0.75726,-1.61118 3.11126,-1.53904 5.5625,-2.3125 1.974781,-0.62298 2.53125,-1.07102 2.53125,-2 0,-2.72448 1.375,-3.59375 1.375,-3.59375 z m 19.75,0 c 1.0584,0 1.875,0.21875 1.875,0.21875 0,0 -2.28125,0.03873 -2.28125,1.03125 0,0.45612 0.45986,1.11454 1.0625,1.375 C 69.4963,59.56975 68.9904,58.75 68.0625,58.75 c -0.92772,0 -0.90213,0.34375 -1.78125,0.34375 -1.465381,0 -2.90625,-1.25 -2.90625,-1.25 0,0 1.64373,0.53125 2.34375,0.53125 1.48158,0 2.8612,-1.21875 4.375,-1.21875 z M 88.15625,60.5 c 0,0 0.48464,0.53125 1.25,0.53125 0.25002,0 0.62643,-0.19554 1.03125,-0.375 0,0 0.34375,0.18981 0.34375,0.84375 0,0.57654 -0.53125,0.75 -0.53125,0.75 0,-0.4068 -0.48766,-0.875 -1.1875,-0.875 -0.70038,0 -1.76613,0.76855 -2.90625,0.90625 -0.0486,0.79794 -1.04085,2.01834 -3.09375,2.25 0.54162,-0.3267 2.00525,-1.08071 1.90625,-2.09375 -0.96048,-0.04932 -1.90625,-1.25 -1.90625,-1.25 0,0 1.00162,0.53125 2.125,0.53125 1.66788,0 2.96875,-1.21875 2.96875,-1.21875 z m -60.3125,2.28125 c 1.490401,1.68498 3.41036,2.50674 4.0625,2.625 -0.1782,0.15426 -0.53632,0.375 -1,0.375 -0.91116,0 -2.15494,-0.90625 -2.5,-0.90625 0,0 -0.71875,-0.14219 -0.71875,-0.96875 0,-0.54306 0.15625,-1.125 0.15625,-1.125 z m 41,4.8125 c -4.226948,0.07021 -8.272605,0.642348 -12,1.46875 -1.97532,0.43794 -8.39231,2.99711 -8.84375,5.09375 1.73466,3.0411 4.78949,4.57494 6.96875,4.875 0.07038,0.198 0.20209,0.36565 0.34375,0.53125 0.38754,0.45414 1.05071,1.20142 1.90625,2.125 1.0377,1.12014 2.347,2.4948 3.625,3.9375 0.36288,0.40986 0.72295,0.97919 1.09375,1.53125 1.0476,1.5579 2.250089,3.34375 4.21875,3.34375 1.03374,0 1.9658,-0.5801 2.5625,-1.0625 0.94662,-0.76608 1.5,-1.55481 1.5,-2.34375 0,-1.33344 -1.03747,-2.50231 -2.03125,-3.71875 -0.68634,-0.83988 -1.42539,-1.75164 -1.78125,-2.625 0.47322,-0.04122 0.91809,-0.10693 1.40625,-0.15625 l 0.25,0 c 0.34002,-0.03438 0.68172,-0.17394 0.9375,-0.375 0.08676,0.03348 0.16216,0.06279 0.25,0.09375 0.18702,0.06534 0.39629,0.09375 0.59375,0.09375 0.0486,0 0.0764,0.0036 0.125,0 0.64872,-0.05382 1.28709,-0.11521 1.96875,-0.15625 0.80442,-0.0486 1.64111,-0.15464 2.46875,-0.3125 0.46746,-0.08928 0.8703,-0.34885 1.125,-0.71875 0.33552,0.0288 0.63341,0.09375 0.96875,0.09375 l 0.21875,0 c 0.19836,0 0.37386,-0.05822 0.5625,-0.125 l 0.0625,-0.03125 c 0.2871,-0.10386 0.55884,-0.28076 0.75,-0.5 0.04122,0.0036 0.0836,0 0.125,0 0.25614,0 0.48115,-0.04393 0.71875,-0.15625 0.2799,-0.132481 0.58365,-0.29584 0.84375,-0.4375 0.20862,-0.11394 0.35708,-0.25804 0.5,-0.4375 0.22698,-0.04536 0.45951,-0.11644 0.65625,-0.25 0.34776,-0.23616 0.66959,-0.4998 0.96875,-0.75 0.18702,-0.15696 0.36219,-0.34812 0.46875,-0.5625 0.25164,-0.11988 0.453459,-0.30373 0.625,-0.53125 0.0675,-0.08964 0.14153,-0.15514 0.21875,-0.25 0.18648,-0.22914 0.4071,-0.51897 0.75,-1.03125 0.16884,-0.25164 0.28694,-0.5281 0.3125,-0.8125 0.17316,-0.18324 0.29274,-0.41055 0.375,-0.65625 0.21762,-0.65142 0.34962,-1.34185 0.375,-2.03125 -1.51002,-0.45792 -5.996001,-3.00649 -14.375,-3.15625 -0.611212,-0.01094 -1.20865,-0.01003 -1.8125,0 z m -0.9375,1.3125 c 0.113041,-0.01538 0.240855,0 0.375,0 1.07316,0 2.19762,0 2.25,0 0.84996,0 8.319569,0.10202 12.46875,3.3125 0,0 0.13806,0.43935 0,0.65625 -0.188821,0.29628 -0.5625,0.34375 -0.5625,0.34375 -3.67434,-3.25062 -11.92501,-3.4375 -13.65625,-3.4375 l -0.1875,0 c 0,0 -0.14147,0.77854 -0.40625,1.1875 8.764199,0 12.40768,2.63834 13.375,3.5 0,0 5.3e-4,0.40223 -0.15625,0.59375 -0.23346,0.28692 -0.5625,0.3125 -0.5625,0.3125 0,0 -1.75442,-2.01788 -6.125,-2.9375 0.65196,0.8136 2.12077,2.22423 5.21875,3.46875 0,0 -0.03767,0.38635 -0.21875,0.53125 -0.23904,0.1917 -0.6875,0.1875 -0.6875,0.1875 -4.14432,-1.82142 -5.42286,-3.98775 -5.625,-4.40625 -1.05372,-0.15192 -2.24238,-0.24658 -3.5625,-0.25 1.6443,2.29122 4.37561,3.90221 8.28125,4.90625 0,0 -0.11551,0.24069 -0.34375,0.46875 -0.18,0.18 -1.03125,0.1875 -1.03125,0.1875 C 72.9583,76.37223 70.25818,74.50596 68.6875,72 c -0.40374,0.0144 -0.82232,0.03118 -1.25,0.0625 -0.4284,0.53928 -0.87485,1.00928 -1.34375,1.4375 1.37484,0.95904 5.13007,3.37435 8.96875,3.90625 0,0 0.1875,0.24735 0.1875,0.46875 0,0.36 -1.15625,0.375 -1.15625,0.375 -3.97836,-0.80226 -7.62763,-3.26161 -8.78125,-4.09375 -0.26136,0.20358 -0.51953,0.38682 -0.78125,0.5625 0.876241,1.00188 2.93038,3.101399 5.3125,3.9375 0,0 -0.0062,0.5 -0.90625,0.5 -0.585,0 -1.03125,-0.3125 -1.03125,-0.3125 C 65.93309,77.719289 64.38068,76.0627 63.6875,75.25 c -0.31014,0.17748 -0.61105,0.32601 -0.90625,0.46875 0.35532,0.7461 1.256969,2.093719 3.28125,3.3125 0,0 0.11003,0.5464 -0.34375,1 -0.36,0.36 -1.28125,0.375 -1.28125,0.375 l -0.75,0 c -3.3093,0 -4.52914,-1.794519 -4.75,-2.125 -0.87714,0.143461 -2.0124,0.15625 -2.25,0.15625 0,0 -0.6875,-0.02034 -0.6875,-0.5625 0,-0.4392 0.34375,-0.53125 0.34375,-0.53125 -3.23388,-1.51524 -3.95323,-2.17053 -5.03125,-4.21875 0,0 0.0092,-0.625 0.46875,-0.625 0.441,0 0.5625,0.3125 0.5625,0.3125 0.30168,0.6345 1.6089,2.83236 5.4375,3.75 -1.27152,-1.4031 -2.48596,-3.20666 -3.0625,-4.4375 0,0 -0.0012,-0.71857 0.71875,-0.71875 1.08,0 1.1875,0.71875 1.1875,0.71875 0,0.30726 0.30384,1.375 0.5625,1.375 0.25866,0 1.7794,-0.15725 3.25,-3.40625 0,0 0.25025,-0.65625 0.78125,-0.65625 0.72,0 0.71875,0.40625 0.71875,0.40625 -2.35134,4.0932 -4.11818,4.3125 -4.4375,4.3125 l -0.03125,0 c 0,0 0.06482,0.27029 0.3125,0.59375 4.47228,-1.05048 5.75,-5.0625 5.75,-5.0625 0,0 0.01332,-0.4375 0.5625,-0.4375 0.54,0 0.53125,0.34375 0.53125,0.34375 -0.0486,0.3231 -1.26111,4.49646 -6.09375,6 3.5559,-0.3069 7.44083,-3.353 8.28125,-6.125 0,0 0.302465,-0.454868 1.09375,-0.5625 z M 61.875,76.125 c -1.43262,0.58032 -2.46875,0.75 -2.46875,0.75 0,0 1.25985,2.28125 3.28125,2.28125 0.6561,0 1.22674,-0.01019 1.75,-0.03125 -1.48536,-1.127881 -2.22068,-2.26812 -2.5625,-3 z" transform="translate(0,-5e-6)" style="" fill="#000000" fill-opacity="1"/><text x="0" y="115" fill="#000000" font-size="5px" font-weight="bold" font-family="'Helvetica Neue', Helvetica, Arial-Unicode, Arial, Sans-serif">Created by Aha-Soft</text><text x="0" y="120" fill="#000000" font-size="5px" font-weight="bold" font-family="'Helvetica Neue', Helvetica, Arial-Unicode, Arial, Sans-serif">from the Noun Project</text></svg>