<svg xmlns="http://www.w3.org/2000/svg" xmlns:xlink="http://www.w3.org/1999/xlink" version="1.1" x="0px" y="0px" viewBox="0 0 100 125" enable-background="new 0 0 100 100" xml:space="preserve"><ellipse cx="60.685" cy="75.249" rx="3.856" ry="3.94"/><ellipse cx="42.682" cy="75.249" rx="3.854" ry="3.94"/><path d="M78.793,32.316c5.426-2.521,8.981-8.002,8.981-14.056c0-8.552-6.958-15.51-15.51-15.51c-3.82,0-7.469,1.406-10.29,3.914  C59.152,4.156,55.504,2.75,51.684,2.75c-3.82,0-7.467,1.406-10.29,3.915C38.571,4.156,34.923,2.75,31.104,2.75  c-8.552,0-15.51,6.958-15.51,15.51c0,6.053,3.555,11.534,8.981,14.056v29.53c0,0.067,0.013,0.131,0.02,0.197  c-1.152,2.967-1.74,6.061-1.74,9.213c0,14.906,12.933,27.034,28.829,27.034s28.829-12.128,28.829-27.034  c0-3.157-0.588-6.251-1.739-9.214c0.006-0.065,0.02-0.129,0.02-0.196V32.316z M19.593,18.26c0-6.347,5.164-11.51,11.51-11.51  c3.375,0,6.57,1.481,8.768,4.063c0.76,0.893,2.287,0.894,3.047,0c2.196-2.582,5.391-4.063,8.766-4.063  c3.376,0,6.571,1.481,8.768,4.063c0.761,0.894,2.288,0.892,3.047,0c2.195-2.582,5.391-4.063,8.767-4.063  c6.347,0,11.51,5.164,11.51,11.51c0,4.848-3.075,9.201-7.652,10.832c-0.797,0.284-1.329,1.038-1.329,1.884v19.582H28.575V30.976  c0-0.846-0.532-1.6-1.329-1.884C22.669,27.46,19.593,23.107,19.593,18.26z M28.575,54.558h46.218v5.288H28.575V54.558z   M51.684,94.29c-13.691,0-24.829-10.333-24.829-23.034c0-2.528,0.447-5.015,1.329-7.41h47.001c0.882,2.392,1.328,4.878,1.328,7.41  C76.513,83.957,65.374,94.29,51.684,94.29z"/><path d="M71.413,15.05c1.962,0,3.559,1.597,3.559,3.559c0,1.104,0.896,2,2,2s2-0.896,2-2c0-4.168-3.391-7.559-7.559-7.559  c-1.104,0-2,0.896-2,2S70.309,15.05,71.413,15.05z"/><text x="0" y="115" fill="#000000" font-size="5px" font-weight="bold" font-family="'Helvetica Neue', Helvetica, Arial-Unicode, Arial, Sans-serif">Created by Andrey Vasiliev</text><text x="0" y="120" fill="#000000" font-size="5px" font-weight="bold" font-family="'Helvetica Neue', Helvetica, Arial-Unicode, Arial, Sans-serif">from the Noun Project</text></svg>